HIERARCHY
ROOT Pelvis
{
	OFFSET 0.000000 0.000000 0.000000
	CHANNELS 6 Xposition Yposition Zposition Xrotation Yrotation Zrotation
	JOINT LeftUpLeg_virtual
	{
		OFFSET 0.000000 0.000000 0.000000
		CHANNELS 3 Xrotation Yrotation Zrotation
		JOINT LeftUpLeg
		{
			OFFSET 18.735201 -5.666702 -4.541200
			CHANNELS 3 Xrotation Yrotation Zrotation
			JOINT LeftLeg
			{
				OFFSET -0.021200 -31.938179 0.493100
				CHANNELS 3 Xrotation Yrotation Zrotation
				JOINT LeftFoot
				{
					OFFSET 0.021200 -31.938179 -4.336299
					CHANNELS 3 Xrotation Yrotation Zrotation
					JOINT LeftToeBase
					{
						OFFSET 0.943001 -26.722000 15.023500
						CHANNELS 3 Xrotation Yrotation Zrotation
						End Site
						{
							OFFSET 0 0 0
						}
					}
				}
			}
		}
	}
	JOINT RightUpLeg_virtual
	{
		OFFSET 0.000000 0.000000 0.000000
		CHANNELS 3 Xrotation Yrotation Zrotation
		JOINT RightUpLeg
		{
			OFFSET -18.735201 -5.666702 -4.541200
			CHANNELS 3 Xrotation Yrotation Zrotation
			JOINT RightLeg
			{
				OFFSET 0.018946 -31.938133 0.493100
				CHANNELS 3 Xrotation Yrotation Zrotation
				JOINT RightFoot
				{
					OFFSET -0.018946 -31.938126 -4.336299
					CHANNELS 3 Xrotation Yrotation Zrotation
					JOINT RightToeBase
					{
						OFFSET -0.943001 -26.722004 15.023500
						CHANNELS 3 Xrotation Yrotation Zrotation
						End Site
						{
							OFFSET 0 0 0
						}
					}
				}
			}
		}
	}
	JOINT Hips_virtual
	{
		OFFSET 0.000000 0.000000 0.000000
		CHANNELS 3 Xrotation Yrotation Zrotation
		JOINT Hips
		{
			OFFSET -0.000000 -0.000000 -0.000000
			CHANNELS 3 Xrotation Yrotation Zrotation
			JOINT Spine
			{
				OFFSET 0.000000 10.199997 -0.299500
				CHANNELS 3 Xrotation Yrotation Zrotation
				JOINT Spine1
				{
					OFFSET 0.000000 11.900002 -1.516600
					CHANNELS 3 Xrotation Yrotation Zrotation
					JOINT Spine2
					{
						OFFSET 0.000000 13.600006 -2.842500
						CHANNELS 3 Xrotation Yrotation Zrotation
						JOINT Neck_virtual
						{
							OFFSET 0.000000 0.000000 0.000000
							CHANNELS 3 Xrotation Yrotation Zrotation
							JOINT Neck
							{
								OFFSET 0.000000 9.624100 -2.890100
								CHANNELS 3 Xrotation Yrotation Zrotation
								JOINT Head
								{
									OFFSET 0.000000 14.068802 -1.351900
									CHANNELS 3 Xrotation Yrotation Zrotation
									End Site
									{
										OFFSET 0 0 0
									}
								}
							}
						}
						JOINT LeftShoulder_virtual
						{
							OFFSET 0.000000 0.000000 0.000000
							CHANNELS 3 Xrotation Yrotation Zrotation
							JOINT LeftShoulder
							{
								OFFSET 15.263000 10.923401 -0.547700
								CHANNELS 3 Xrotation Yrotation Zrotation
								JOINT LeftArm
								{
									OFFSET 25.438599 -2.830597 -13.032500
									CHANNELS 3 Xrotation Yrotation Zrotation
									JOINT LeftForeArm
									{
										OFFSET 29.960503 0.000000 0.000000
										CHANNELS 3 Xrotation Yrotation Zrotation
										JOINT LeftHand
										{
											OFFSET 27.849251 0.000000 0.000000
											CHANNELS 3 Xrotation Yrotation Zrotation
											End Site
											{
												OFFSET 0 0 0
											}
										}
									}
								}
							}
						}
						JOINT RightShoulder_virtual
						{
							OFFSET 0.000000 0.000000 0.000000
							CHANNELS 3 Xrotation Yrotation Zrotation
							JOINT RightShoulder
							{
								OFFSET -15.263000 10.923401 -0.547700
								CHANNELS 3 Xrotation Yrotation Zrotation
								JOINT RightArm
								{
									OFFSET -25.438599 -2.830597 -13.032500
									CHANNELS 3 Xrotation Yrotation Zrotation
									JOINT RightForeArm
									{
										OFFSET -29.960503 0.000000 0.000000
										CHANNELS 3 Xrotation Yrotation Zrotation
										JOINT RightHand
										{
											OFFSET -27.849251 0.000000 0.000000
											CHANNELS 3 Xrotation Yrotation Zrotation
											End Site
											{
												OFFSET 0 0 0
											}
										}
									}
								}
							}
						}
					}
				}
			}
		}
	}
}
MOTION
Frames: 6
Frame Time: 0.03333333
-1.292639 15.784953 5.021531 0.000000 0.000000 0.000000 -42.641110 -3.713527 -13.809732 -87.859059 7.101929 8.924532 39.985700 2.149714 -1.177060 -8.742501 2.635381 -5.609625 0.000000 0.000000 0.000000 -34.790808 6.198456 6.186174 -72.850948 1.027960 -9.943844 34.752484 -5.886842 10.033447 -13.535620 -14.583101 23.515766 0.000000 0.000000 0.000000 -22.950834 -9.468378 0.863475 -74.742733 8.146961 15.431680 0.155692 0.097233 -1.286813 -1.923203 0.617224 -0.384396 0.000000 0.000000 0.000000 1.829108 -0.189448 -0.055517 -1.343321 0.516737 -0.226582 0.000000 0.000000 0.000000 -0.218492 -0.436325 0.671573 -1.246114 -5.643943 -4.458716 -15.455139 -27.270230 -68.786118 -4.360951 -84.595206 -12.874879 0.000000 0.000000 0.000000 0.129740 0.248810 -0.550018 -1.281866 4.542230 5.010779 -0.391078 23.018018 58.090868 171.901914 81.432322 -165.128347 0.000000 0.000000 0.000000 
-1.319880 15.886987 4.994511 0.000000 0.000000 0.000000 -42.804652 -3.792767 -13.859192 -88.001646 7.069657 8.932493 40.126405 2.215328 -1.146225 -8.584055 2.684236 -5.524603 0.000000 0.000000 0.000000 -34.846334 6.077182 6.109154 -72.913130 1.027545 -9.985257 34.733564 -5.910992 10.106289 -13.520781 -14.639056 23.611269 0.000000 0.000000 0.000000 -23.022747 -9.612327 0.869833 -74.557116 8.435236 15.624942 0.228270 0.055843 -1.310546 -1.900146 0.628620 -0.371671 0.000000 0.000000 0.000000 1.862839 -0.225997 -0.058016 -1.347204 0.513326 -0.222339 0.000000 0.000000 0.000000 -0.246417 -0.473860 0.685285 -1.260983 -5.681733 -4.363493 -15.499064 -27.126516 -68.802961 -4.656403 -84.751856 -13.146286 0.000000 0.000000 0.000000 0.151990 0.286000 -0.559400 -1.231398 4.492417 5.082025 -0.238568 22.770290 58.025893 172.509282 81.202254 -165.761301 0.000000 0.000000 0.000000 
-1.348530 16.055151 4.942823 0.000000 0.000000 0.000000 -43.112106 -3.921063 -13.947876 -88.271609 7.013282 8.948999 40.395860 2.327792 -1.098901 -8.288472 2.770668 -5.387565 0.000000 0.000000 0.000000 -34.953981 5.868138 5.982786 -73.031313 1.024604 -10.049996 34.743523 -5.933128 10.236997 -13.462066 -14.716114 23.795250 0.000000 0.000000 0.000000 -23.169718 -9.902689 0.880741 -74.197656 8.976431 16.030275 0.349455 -0.014289 -1.350398 -1.860820 0.648657 -0.348623 0.000000 0.000000 0.000000 1.927021 -0.289889 -0.062305 -1.352900 0.507364 -0.214331 0.000000 0.000000 0.000000 -0.293124 -0.543885 0.711984 -1.284104 -5.751517 -4.175371 -15.528963 -26.869776 -68.780866 -5.095254 -85.059221 -13.533277 0.000000 0.000000 0.000000 0.194068 0.357645 -0.576213 -1.142075 4.401208 5.215135 0.026394 22.279843 57.922149 173.556446 80.809908 -166.850279 0.000000 0.000000 0.000000 
-1.340212 16.236032 4.872808 0.000000 0.000000 0.000000 -43.528126 -4.050429 -14.059857 -88.640740 6.947033 8.972976 40.771892 2.456082 -1.057647 -7.892032 2.875146 -5.251875 0.000000 0.000000 0.000000 -35.102770 5.619642 5.849749 -73.190818 1.014046 -10.109855 34.853407 -5.915149 10.401862 -13.316496 -14.762586 24.054741 0.000000 0.000000 0.000000 -23.391665 -10.340264 0.893211 -73.689292 9.714444 16.670059 0.482589 -0.092625 -1.394777 -1.817053 0.672916 -0.319074 0.000000 0.000000 0.000000 2.015930 -0.366301 -0.066999 -1.357136 0.500280 -0.203213 0.000000 0.000000 0.000000 -0.345393 -0.637964 0.750948 -1.305679 -5.843988 -3.900152 -15.461670 -26.547673 -68.640539 -5.412643 -85.505820 -13.765276 0.000000 0.000000 0.000000 0.251134 0.458544 -0.597466 -1.033326 4.282088 5.394789 0.340026 21.562158 57.821813 174.832653 80.359710 -168.170568 0.000000 0.000000 0.000000 
-1.262815 16.384932 4.796515 0.000000 0.000000 0.000000 -44.006844 -4.132288 -14.178183 -89.070830 6.887321 9.000170 41.224850 2.566925 -1.044176 -7.436567 2.975101 -5.171771 0.000000 0.000000 0.000000 -35.270219 5.370548 5.749574 -73.366709 0.987685 -10.138226 35.121389 -5.826714 10.576814 -13.049741 -14.734837 24.372181 0.000000 0.000000 0.000000 -23.677515 -10.916727 0.904413 -73.070375 10.591690 17.548836 0.594652 -0.157925 -1.432909 -1.782391 0.697056 -0.286753 0.000000 0.000000 0.000000 2.123061 -0.440001 -0.070127 -1.356633 0.493696 -0.189465 0.000000 0.000000 0.000000 -0.392446 -0.746713 0.802014 -1.317663 -5.949563 -3.549606 -15.234925 -26.204536 -68.324165 -5.300153 -86.073696 -13.528756 0.000000 0.000000 0.000000 0.316445 0.581502 -0.620263 -0.926334 4.149066 5.604516 0.639869 20.650083 57.766912 176.185686 79.949591 -169.557575 0.000000 0.000000 0.000000 
-1.104781 16.485468 4.731469 0.000000 0.000000 0.000000 -44.496319 -4.130785 -14.285558 -89.517047 6.847886 9.025069 41.720523 2.634252 -1.071521 -6.961254 3.050674 -5.184181 0.000000 0.000000 0.000000 -35.423813 5.137336 5.704877 -73.526112 0.936604 -10.119555 35.562664 -5.659229 10.743146 -12.655858 -14.615119 24.726077 0.000000 0.000000 0.000000 -24.002816 -11.606700 0.913204 -72.388920 11.560391 18.637527 0.668911 -0.194573 -1.458133 -1.767940 0.718369 -0.253991 0.000000 0.000000 0.000000 2.243068 -0.499655 -0.069420 -1.348983 0.489156 -0.173231 0.000000 0.000000 0.000000 -0.429781 -0.861752 0.865193 -1.317524 -6.060633 -3.144064 -14.843186 -25.864936 -67.828887 -4.484502 -86.734632 -12.548184 0.000000 0.000000 0.000000 0.382678 0.717952 -0.642412 -0.837870 4.013368 5.830462 0.886996 19.597273 57.785033 177.532531 79.639289 -170.921454 0.000000 0.000000 0.000000 
